<?xml version="1.0" encoding="UTF-8"?>
<svg width="52px" height="52px" viewBox="0 0 52 52" version="1.1" xmlns="http://www.w3.org/2000/svg" xmlns:xlink="http://www.w3.org/1999/xlink">
    <!-- Generator: sketchtool 59.1 (101010) - https://sketch.com -->
    <title>B3871BD0-724B-4BBA-809C-0923CED84638</title>
    <desc>Created with sketchtool.</desc>
    <g id="01-web-landing" stroke="none" stroke-width="1" fill="none" fill-rule="evenodd">
        <g id="Desktop-HD-Copy-14" transform="translate(-691.000000, -493.000000)">
            <g id="Group-3" transform="translate(345.000000, 325.000000)">
                <g id="Group-2">
                    <g id="Group-11" transform="translate(0.500000, 0.000000)">
                        <g id="Group-14" transform="translate(345.500000, 168.000000)">
                            <circle id="Oval" stroke="#FFFFFF" cx="25.5232045" cy="25.5232045" r="25.0232045"></circle>
                            <g id="edit" transform="translate(13.023204, 13.023204)" fill="#FFFFFF" fill-rule="nonzero">
                                <path d="M24.3225098,4.51074219 L20.4892578,0.677441406 C19.5861328,-0.225732422 18.1242188,-0.225878906 17.2209473,0.677441406 C16.5780273,1.32045898 2.44365234,15.4548828 2.17407227,15.7243652 C2.0675293,15.8309082 1.9921875,15.964502 1.95629883,16.1108398 L0.0245117188,23.9779297 C-0.123730469,24.5818359 0.42421875,25.1224609 1.02211914,24.9755859 C1.43037109,24.8753418 8.52788086,23.1324707 8.88916016,23.04375 C9.03544922,23.0078613 9.16914063,22.9325195 9.27563477,22.8259766 C9.55961914,22.5419922 23.615332,8.4862793 24.3225586,7.77905273 C25.2256836,6.87587891 25.2259277,5.41401367 24.3225098,4.51074219 Z M1.95102539,23.0489746 L2.02973633,22.7285645 L2.27148438,22.9703125 L1.95102539,23.0489746 Z M4.14423828,22.5104492 L2.48959961,20.8558105 L3.20913086,17.9256836 L7.07436523,21.790918 L4.14423828,22.5104492 Z M8.69248047,21.0765137 L3.92353516,16.3075684 L16.2382324,3.99282227 L21.0071777,8.76176758 L8.69248047,21.0765137 Z M23.15625,6.61274414 L22.2037109,7.56523438 L17.4348145,2.79628906 L18.3873047,1.84379883 C18.6458008,1.58535156 19.0644043,1.58510742 19.322998,1.84379883 L23.1562988,5.67714844 C23.4148438,5.93569336 23.4148438,6.35410156 23.15625,6.61274414 Z" id="Shape"></path>
                            </g>
                        </g>
                    </g>
                </g>
            </g>
        </g>
    </g>
</svg>