<?xml version="1.0" encoding="UTF-8"?>
<svg width="104px" height="103px" viewBox="0 0 104 103" version="1.1" xmlns="http://www.w3.org/2000/svg" xmlns:xlink="http://www.w3.org/1999/xlink">
    <title>CB8C543A-2F0F-4549-B6C5-F439DF0D07DD</title>
    <defs>
        <linearGradient x1="50%" y1="0%" x2="50%" y2="100%" id="linearGradient-1">
            <stop stop-color="#ECCB3B" offset="0%"></stop>
            <stop stop-color="#BF8015" offset="100%"></stop>
        </linearGradient>
        <linearGradient x1="50%" y1="0%" x2="50%" y2="100%" id="linearGradient-2">
            <stop stop-color="#ECCB3B" offset="0%"></stop>
            <stop stop-color="#BF8015" offset="100%"></stop>
        </linearGradient>
        <path d="M0.195424727,4.88 C0.195424727,7.14758621 2.03956266,8.99034483 4.30576955,8.99034483 L4.30576955,8.99034483 C6.57059714,8.99034483 8.41473507,7.14758621 8.41473507,4.88 L8.41473507,4.88 C8.41473507,2.61517241 6.57059714,0.771034483 4.30576955,0.771034483 L4.30576955,0.771034483 C2.03956266,0.771034483 0.195424727,2.61517241 0.195424727,4.88" id="path-3"></path>
        <polygon id="path-5" points="0.40496851 0.673103448 38.16 0.673103448 38.16 27.1984828 0.40496851 27.1984828"></polygon>
        <linearGradient x1="50%" y1="0%" x2="50%" y2="100%" id="linearGradient-7">
            <stop stop-color="#ECCB3B" offset="0%"></stop>
            <stop stop-color="#BF8015" offset="100%"></stop>
        </linearGradient>
        <linearGradient x1="50%" y1="0%" x2="50%" y2="100%" id="linearGradient-8">
            <stop stop-color="#ECCB3B" offset="0%"></stop>
            <stop stop-color="#BF8015" offset="100%"></stop>
        </linearGradient>
    </defs>
    <g id="01-web-landing" stroke="none" stroke-width="1" fill="none" fill-rule="evenodd">
        <g id="Desktop-HD-Copy-14" transform="translate(-971.000000, -325.000000)">
            <g id="Group-3" transform="translate(345.000000, 325.000000)">
                <g id="Group-11" transform="translate(0.500000, 0.000000)">
                    <g id="Group-Copy-2" transform="translate(606.000000, 0.000000)">
                        <g id="Group-4" transform="translate(20.000000, 0.000000)">
                            <rect id="Rectangle" fill="#FFFFFF" opacity="0.200000003" x="0" y="0" width="103" height="103" rx="10"></rect>
                            <g id="Group-50" transform="translate(9.500000, 11.500000)">
                                <g id="Group-9" transform="translate(42.413793, 0.706759)">
                                    <g id="Group-5" fill="url(#linearGradient-1)">
                                        <path d="M35.2231724,25.8 C34.6438621,23.6455172 33.9362759,21.1489655 32.8769655,18.7931034 C31.8507586,16.5117241 30.1666207,13.7917241 27.9776552,13.7917241 C27.9335172,13.7917241 27.888,13.7931034 27.8411034,13.7958621 C25.3017931,13.9268966 22.6369655,16.6868966 20.8755862,18.5117241 L20.8093793,18.5806897 C19.0328276,20.4206897 17.3542069,22.2372414 16.3376552,24.2331034 L16.0604138,24.7751724 L0.192827586,6.62068966 L0.514206897,6.35034483 C1.06317241,5.89103448 1.83834483,5.5862069 2.51972414,5.31724138 C2.72524138,5.23586207 2.92524138,5.15724138 3.10731034,5.07862069 C4.03558621,4.67862069 5.00524138,4.29103448 5.99144828,3.92551724 C8.25351724,3.08689655 10.5211034,2.39172414 12.728,1.86068966 C16.0466207,1.06068966 18.9528276,0.673103448 21.6135172,0.673103448 C23.9293793,0.673103448 26.0948966,0.976551724 28.0507586,1.57517241 C33.3831724,3.20965517 37.0176552,7.4137931 37.7721379,12.822069 C38.3955862,17.2965517 37.2466207,21.6910345 36.0148966,25.8110345 L35.5997241,27.1986207 L35.2231724,25.8 Z" id="Fill-1"></path>
                                    </g>
                                    <g id="Group-28" transform="translate(31.320437, 22.068966)">
                                        <mask id="mask-4" fill="white">
                                            <use xlink:href="#path-3"></use>
                                        </mask>
                                        <use id="Clip-27" fill="url(#linearGradient-2)" xlink:href="#path-3"></use>
                                    </g>
                                </g>
                                <g id="Group-25" transform="translate(15.310345, 5.844690)">
                                    <path d="M25.7896552,70.6426207 C15.037931,70.6426207 6.29172414,61.8950345 6.29172414,51.1433103 L6.29172414,22.0150345 C6.29172414,11.2633103 15.037931,2.51710345 25.7896552,2.51710345 C36.5413793,2.51710345 45.2889655,11.2633103 45.2889655,22.0150345 L45.2889655,51.1433103 C45.2889655,61.8950345 36.5413793,70.6426207 25.7896552,70.6426207" id="Fill-13" fill="#EFDFBF"></path>
                                    <path d="M45.0972414,35.0721379 C44.8696552,35.0721379 44.6848276,34.8886897 44.6848276,34.6611034 C44.6848276,31.610069 43.9344828,28.5824828 42.5137931,25.9038621 C41.8268966,24.605931 40.9841379,23.3866207 40.0103448,22.2804138 C39.5275862,21.7328276 39.0075862,21.205931 38.4613793,20.7148966 C38.1937931,20.4735172 37.9110345,20.2335172 37.6227586,20.0017931 C37.5993103,19.9838621 37.58,19.9673103 37.5634483,19.9562759 C37.5537931,19.9645517 37.5441379,19.9728276 37.5358621,19.9824828 C37.4613793,20.045931 37.3744828,20.1217931 37.2627586,20.2004138 C34.2310345,22.3314483 30.2351724,23.5038621 26.0075862,23.5038621 C24.4448276,23.5038621 22.8875862,23.3438621 21.3882759,23.0335172 C22.6365517,23.5728276 23.8517241,23.8969655 25.1193103,24.0390345 C25.4862069,24.085931 25.8655172,24.108 26.2489655,24.108 C27.8517241,24.108 29.442069,23.7121379 31.0668966,23.2707586 C31.1027586,23.2611034 31.14,23.2569655 31.1744828,23.2569655 C31.3317241,23.2569655 31.477931,23.3452414 31.5468966,23.4914483 C31.6324138,23.6721379 31.5758621,23.8873103 31.4144828,24.0031724 C29.2034483,25.5783448 26.8365517,26.3769655 24.3772414,26.3769655 C23.4089655,26.3769655 22.4117241,26.2528276 21.4103448,26.0086897 C18.6613793,25.3342069 15.2958621,23.4942069 13.7937931,20.3190345 C9.58827586,23.8721379 7.09172414,29.1935172 7.09172414,34.6611034 C7.09172414,34.8886897 6.90827586,35.0721379 6.68068966,35.0721379 C6.45310345,35.0721379 6.26965517,34.8886897 6.26965517,34.6611034 L6.26965517,27.1797241 C6.26965517,26.4817931 6.25724138,25.7797241 6.24482759,25.0721379 C6.21310345,23.1769655 6.17862069,21.2169655 6.38551724,19.3135172 C7.4462069,9.51075862 16.0144828,1.83075862 25.8889655,1.83075862 C35.9427586,1.83075862 44.5262069,9.66524138 45.4282759,19.6666207 C45.7372414,23.0886897 45.6558621,26.6211034 45.58,30.0376552 C45.5441379,31.5590345 45.5082759,33.1314483 45.5082759,34.6611034 C45.5082759,34.8886897 45.3248276,35.0721379 45.0972414,35.0721379" id="Fill-17" fill="#212020"></path>
                                    <path d="M25.7896552,15.986069 C15.4972414,15.986069 7.12344828,24.3598621 7.12344828,34.6522759 L7.12344828,48.2136552 C7.12344828,58.1088276 15.277931,69.6108966 25.7896552,69.6108966 C36.3027586,69.6108966 44.4572414,58.1088276 44.4572414,48.2136552 L44.4572414,34.6522759 C44.4572414,24.3598621 36.0834483,15.986069 25.7896552,15.986069 M25.7896552,73.0715862 C13.4655172,73.0715862 3.54275862,58.2577931 3.54275862,45.9929655 L3.54275862,45.8495172 C1.41862069,44.9115862 0.0613793103,42.8481379 0.0613793103,40.5171034 L0.0613793103,36.901931 C0.0613793103,34.5695172 1.41862069,32.506069 3.54275862,31.5681379 L3.54275862,22.3350345 C3.54275862,10.0674483 13.522069,0.088137931 25.7896552,0.088137931 C38.0572414,0.088137931 48.0365517,10.0674483 48.0365517,22.3350345 L48.0365517,31.5681379 C50.1606897,32.506069 51.517931,34.5695172 51.517931,36.901931 L51.517931,40.5171034 C51.517931,42.8481379 50.1606897,44.9115862 48.0365517,45.8495172 L48.0365517,45.9929655 C48.0365517,58.2577931 38.1137931,73.0715862 25.7896552,73.0715862" id="Fill-19" fill="#CACCC7"></path>
                                </g>
                                <g id="Group-6" transform="translate(0.000000, 0.706759)">
                                    <g id="Group-34" transform="translate(1.379310, 0.000000)">
                                        <g id="Group-31">
                                            <mask id="mask-6" fill="white">
                                                <use xlink:href="#path-5"></use>
                                            </mask>
                                            <g id="Clip-30"></g>
                                            <path d="M2.33655172,25.8108966 C1.10482759,21.6922759 -0.044137931,17.2964138 0.580689655,12.821931 C1.3337931,7.41365517 4.96827586,3.20951724 10.2993103,1.57503448 C12.2551724,0.976413793 14.4234483,0.672965517 16.737931,0.672965517 C19.3986207,0.672965517 22.3048276,1.06193103 25.6234483,1.86055172 C27.8303448,2.39158621 30.097931,3.08675862 32.36,3.92537931 C33.3462069,4.29089655 34.3172414,4.67848276 35.2427586,5.07848276 C35.4262069,5.15710345 35.6262069,5.23572414 35.8317241,5.31710345 C36.5131034,5.58606897 37.2868966,5.89089655 37.8358621,6.35158621 L38.16,6.62055172 L22.2910345,24.7764138 L22.0151724,24.2329655 C20.9972414,22.2371034 19.32,20.4205517 17.542069,18.5805517 L17.4772414,18.5115862 C15.7131034,16.6867586 13.0510345,13.9267586 10.5103448,13.7957241 C10.4648276,13.7943448 10.417931,13.7929655 10.3724138,13.7929655 C8.18344828,13.7929655 6.50206897,16.5115862 5.47448276,18.7943448 C4.41517241,21.1502069 3.70758621,23.6467586 3.12689655,25.7998621 L2.75034483,27.1984828 L2.33655172,25.8108966 Z" id="Fill-29" fill="#212020" mask="url(#mask-6)"></path>
                                        </g>
                                        <path d="M16.7384828,1.08427586 C19.7012414,1.08427586 22.6888276,1.57668966 25.526069,2.26082759 C27.7950345,2.80703448 30.0295172,3.49944828 32.2171034,4.31048276 C33.1812414,4.66772414 34.1357241,5.0497931 35.0805517,5.45668966 C35.8557241,5.79186207 36.9164138,6.11737931 37.5715862,6.66634483 C32.5095172,12.4608276 27.4446897,18.2525517 22.3812414,24.0456552 C21.3012414,21.9270345 19.4777931,19.9932414 17.8391724,18.2953103 C16.0708966,16.4635862 13.2667586,13.5270345 10.5302069,13.3849655 C10.4777931,13.3822069 10.4253793,13.3808276 10.3729655,13.3808276 C7.81158621,13.3808276 6.00055172,16.6222069 5.09986207,18.6249655 C4.07089655,20.9118621 3.37986207,23.2787586 2.7302069,25.6925517 C1.48882759,21.5394483 0.378482759,17.2497931 0.986758621,12.8801379 C1.72606897,7.58358621 5.33710345,3.52703448 10.4212414,1.9697931 C12.4708966,1.3422069 14.5977931,1.08427586 16.7384828,1.08427586" id="Fill-32" fill="url(#linearGradient-7)"></path>
                                    </g>
                                    <g id="Group-40" transform="translate(0.000000, 22.068966)"></g>
                                    <path d="M-2.2470914e-13,26.9489655 C-2.2470914e-13,29.2165517 1.84413793,31.0593103 4.10896552,31.0593103 L4.10896552,31.0593103 C6.37517241,31.0593103 8.21931034,29.2165517 8.21931034,26.9489655 L8.21931034,26.9489655 C8.21931034,24.6841379 6.37517241,22.84 4.10896552,22.84 L4.10896552,22.84 C1.84413793,22.84 -2.2470914e-13,24.6841379 -2.2470914e-13,26.9489655" id="Fill-38" fill="url(#linearGradient-2)"></path>
                                </g>
                                <g id="Group-49" transform="translate(15.310345, 5.844690)">
                                    <path d="M25.7896552,15.986069 C15.4972414,15.986069 7.12344828,24.3598621 7.12344828,34.6522759 L7.12344828,48.2136552 C7.12344828,58.1088276 15.277931,69.6108966 25.7896552,69.6108966 C36.3027586,69.6108966 44.4572414,58.1088276 44.4572414,48.2136552 L44.4572414,34.6522759 C44.4572414,24.3598621 36.0834483,15.986069 25.7896552,15.986069 M25.7896552,73.0715862 C13.4655172,73.0715862 3.54275862,58.2577931 3.54275862,45.9929655 L3.54275862,45.8495172 C1.41862069,44.9115862 0.0613793103,42.8481379 0.0613793103,40.5171034 L0.0613793103,36.901931 C0.0613793103,34.5695172 1.41862069,32.506069 3.54275862,31.5681379 L3.54275862,22.3350345 C3.54275862,10.0674483 13.522069,0.088137931 25.7896552,0.088137931 C38.0572414,0.088137931 48.0365517,10.0674483 48.0365517,22.3350345 L48.0365517,31.5681379 C50.1606897,32.506069 51.517931,34.5695172 51.517931,36.901931 L51.517931,40.5171034 C51.517931,42.8481379 50.1606897,44.9115862 48.0365517,45.8495172 L48.0365517,45.9929655 C48.0365517,58.2577931 38.1137931,73.0715862 25.7896552,73.0715862" id="Fill-41" fill="#212020"></path>
                                    <path d="M25.7896552,0.499172414 C37.8489655,0.499172414 47.6241379,10.2743448 47.6241379,22.3336552 L47.6241379,31.8426207 C49.6586207,32.6288276 51.1068966,34.5902069 51.1068966,36.901931 L51.1068966,40.5171034 C51.1068966,42.8274483 49.6586207,44.7888276 47.6241379,45.5750345 L47.6241379,45.9929655 C47.6241379,58.0522759 37.8489655,72.6591724 25.7896552,72.6591724 L25.7896552,70.0233103 C36.3275862,70.0233103 44.8682759,58.7502069 44.8682759,48.2136552 L44.8682759,34.6522759 C44.8682759,24.1157241 36.3275862,15.5750345 25.7896552,15.5750345 L25.7896552,0.499172414 Z" id="Fill-47" fill="url(#linearGradient-8)"></path>
                                </g>
                            </g>
                        </g>
                    </g>
                </g>
            </g>
        </g>
    </g>
</svg>