<?xml version="1.0" encoding="UTF-8"?>
<svg width="104px" height="103px" viewBox="0 0 104 103" version="1.1" xmlns="http://www.w3.org/2000/svg" xmlns:xlink="http://www.w3.org/1999/xlink">
    <title>567CEF9D-650F-49B8-AA66-49F96873370F</title>
    <defs>
        <linearGradient x1="50%" y1="0%" x2="50%" y2="100%" id="linearGradient-1">
            <stop stop-color="#ECCB3B" offset="0%"></stop>
            <stop stop-color="#BF8015" offset="100%"></stop>
        </linearGradient>
        <radialGradient cx="50%" cy="0%" fx="50%" fy="0%" r="100%" gradientTransform="translate(0.500000,0.000000),scale(0.745367,1.000000),rotate(90.000000),translate(-0.500000,-0.000000)" id="radialGradient-2">
            <stop stop-color="#EFDFBF" offset="0%"></stop>
            <stop stop-color="#FFE9BE" offset="100%"></stop>
        </radialGradient>
    </defs>
    <g id="01-web-landing" stroke="none" stroke-width="1" fill="none" fill-rule="evenodd">
        <g id="Desktop-HD-Copy-14" transform="translate(-362.000000, -325.000000)">
            <g id="Group-3" transform="translate(345.000000, 325.000000)">
                <g id="Group-11" transform="translate(0.500000, 0.000000)">
                    <g id="Group-4" transform="translate(17.000000, 0.000000)">
                        <rect id="Rectangle" fill="#FFFFFF" opacity="0.200000003" x="0" y="0" width="103" height="103" rx="10"></rect>
                        <g id="Group-13" transform="translate(16.397436, 14.500000)">
                            <path d="M4.11777293,39.3331715 L4.11777293,9.81892268 C4.11777293,9.41575251 3.86198521,9.04912344 3.47830363,8.93097388 C1.66708297,8.36945893 0.357693449,6.75190611 0.357693449,4.85055073 C0.357693449,2.48634137 2.38572466,0.560625251 4.88026395,0.560625251 C7.3735852,0.560625251 9.40161641,2.48634137 9.40161641,4.85055073 C9.40161641,6.07589571 8.8547179,7.21354204 7.93753622,8.01135612 C7.61353844,8.29394065 7.53436605,8.7628848 7.73412408,9.14291227 L12.0849514,17.4304344 C12.4503624,18.1259334 13.4564608,18.0967005 13.7816766,17.3817129 L17.4662378,9.26106184 C17.6428531,8.868854 17.5320118,8.40721807 17.1933976,8.14046802 C16.1775549,7.34021787 15.5551381,6.13923362 15.5551381,4.85055073 C15.5551381,2.48634137 17.5843874,0.560625251 20.0777086,0.560625251 C22.5698118,0.560625251 24.5990611,2.48634137 24.5990611,4.85055073 C24.5990611,6.09660233 24.0375461,7.24886511 23.0947857,8.04546115 C22.7683518,8.32317353 22.6830893,8.79211769 22.8767571,9.17336319 L27.0911643,17.4560132 C27.445613,18.1527302 28.4456212,18.1417679 28.7842354,17.4377426 L32.6941334,9.30978331 C32.8853652,8.90904922 32.7708697,8.43279684 32.4188571,8.16239268 C31.3859619,7.3645786 30.7525828,6.15872221 30.7525828,4.85055073 C30.7525828,2.48634137 32.780614,0.560625251 35.2739353,0.560625251 C37.7672565,0.560625251 39.7965058,2.48634137 39.7965058,4.85055073 C39.7965058,6.05762516 39.2569155,7.18796327 38.3506961,7.98699539 C38.0388787,8.2622717 37.9597063,8.71781744 38.1448479,9.09175473 L42.2788647,17.4560132 C42.6247871,18.1563843 43.6223592,18.1576023 43.9707177,17.4596673 L47.9865849,9.4023541 C48.1912151,8.99187572 48.0669754,8.49735279 47.6954742,8.22694863 C46.6138575,7.43644277 45.9512455,6.20866172 45.9512455,4.85055073 C45.9512455,2.48634137 47.9792767,0.560625251 50.472598,0.560625251 C52.9659192,0.560625251 54.9939504,2.48634137 54.9939504,4.85055073 C54.9939504,6.05640712 54.4726307,7.16725665 53.5761556,7.96141662 C53.2753006,8.22816667 53.1961282,8.6666599 53.3629992,9.03328897 L57.1206426,17.3269013 C57.4470765,18.047979 58.4617011,18.0711217 58.8210219,17.3658785 L62.9611289,9.23548307 C63.1608869,8.84083916 63.0573538,8.36458678 62.7150855,8.08443833 C61.7430921,7.28418818 61.1474722,6.10756466 61.1474722,4.85055073 C61.1474722,2.48634137 63.1755034,0.560625251 65.6688246,0.560625251 C68.1633639,0.560625251 70.1913951,2.48634137 70.1913951,4.85055073 C70.1913951,6.72267323 68.9453435,8.30612102 67.1767541,8.88956063 C66.8003808,9.01501841 66.5543373,9.3755573 66.5543373,9.77263728 L66.5543373,39.3331715 C66.5543373,39.8544912 66.1304605,40.2771499 65.6091408,40.2771499 L5.06053339,40.2771499 C4.54043169,40.2771499 4.11777293,39.8544912 4.11777293,39.3331715" id="Fill-1" fill="url(#linearGradient-1)"></path>
                            <path d="M35.5672825,73.6598835 C18.023899,73.6598835 3.80088372,59.4368682 3.80088372,41.8934847 C3.80088372,24.3501012 18.023899,26.3769144 35.5672825,26.3769144 C53.1106659,26.3769144 67.3324632,24.3501012 67.3324632,41.8934847 C67.3324632,59.4368682 53.1106659,73.6598835 35.5672825,73.6598835 Z" id="Fill-4" fill="url(#radialGradient-2)"></path>
                            <path d="M17.4536142,67.520491 C11.2343185,67.520491 4.7677613,65.899284 4.34144843,62.2829329 C4.32805003,62.1660014 4.31952377,62.0429797 4.31952377,61.9126497 L4.31952377,61.9065595 C4.31952377,61.6203209 4.55095075,61.3876759 4.83962547,61.3876759 C5.1258641,61.3876759 5.35729109,61.6203209 5.35729109,61.9065595 L5.35729109,61.9114317 C5.35729109,61.9942582 5.36216324,62.0770847 5.37190753,62.1574751 C5.42550115,62.5935323 5.61186077,62.9967024 6.6033427,62.9967024 L6.60456073,62.9967024 C8.78484654,62.9954844 13.0126521,61.0295731 17.4877192,58.9503843 C22.881186,56.4436647 28.4585763,53.8516824 32.0651832,53.8516824 C33.7899232,53.8516824 34.9714189,54.4643549 35.5658208,55.6446326 C36.1614408,54.4643549 37.3429365,53.8516824 39.0676765,53.8516824 C42.6755014,53.8516824 48.2528917,56.4436647 53.6463585,58.9503843 C58.1226436,61.0307911 62.3492312,62.9967024 64.5282989,62.9967024 C65.523435,62.9967024 65.7097946,62.5898782 65.7621702,62.1501669 C65.7706964,62.0722125 65.7755686,61.9918221 65.7755686,61.9114317 L65.7755686,61.9065595 C65.7755686,61.6203209 66.0069956,61.3876759 66.2944522,61.3876759 C66.5819089,61.3876759 66.8133359,61.6203209 66.8133359,61.9065595 L66.8133359,61.9126497 C66.8133359,62.0393256 66.8072457,62.1586932 66.7926293,62.2707525 C66.3797148,65.896848 59.9082855,67.520491 53.6792455,67.520491 C45.875284,67.520491 37.5512207,65.2086572 35.5621667,60.1891277 C34.7412099,62.2390836 32.8069676,63.9626056 29.8520104,65.2525065 C26.5462586,66.693444 22.0285602,67.520491 17.4560502,67.520491 L17.4536142,67.520491 Z" id="Fill-11" fill="#212020"></path>
                        </g>
                    </g>
                </g>
            </g>
        </g>
    </g>
</svg>