<?xml version="1.0" encoding="UTF-8"?>
<svg width="104px" height="103px" viewBox="0 0 104 103" version="1.1" xmlns="http://www.w3.org/2000/svg" xmlns:xlink="http://www.w3.org/1999/xlink">
    <title>E64E1E90-C939-4FD8-88CE-81144FDEBD4A</title>
    <defs>
        <linearGradient x1="50%" y1="0%" x2="50%" y2="100%" id="linearGradient-1">
            <stop stop-color="#ECCB3B" offset="0%"></stop>
            <stop stop-color="#BF8015" offset="100%"></stop>
        </linearGradient>
        <polygon id="path-2" points="0 0.0960063903 70.1638605 0.0960063903 70.1638605 51.7922196 0 51.7922196"></polygon>
    </defs>
    <g id="01-web-landing" stroke="none" stroke-width="1" fill="none" fill-rule="evenodd">
        <g id="Desktop-HD-Copy-14" transform="translate(-665.000000, -325.000000)">
            <g id="Group-3" transform="translate(345.000000, 325.000000)">
                <g id="Group-11" transform="translate(0.500000, 0.000000)">
                    <g id="Group-Copy" transform="translate(295.000000, 0.000000)">
                        <g id="Group-4" transform="translate(25.000000, 0.000000)">
                            <path d="M93,0 C98.5228475,-1.01453063e-15 103,4.4771525 103,10 L103,93 C103,98.4292399 98.6733292,102.847932 93.2799048,102.996158 L93,103 L93,103 L10,103 C4.4771525,103 6.76353751e-16,98.5228475 0,93 L0,10 C-6.76353751e-16,4.4771525 4.4771525,1.01453063e-15 10,0 L93,0 Z" id="Rectangle-2" fill="#FFFFFF" opacity="0.200000003"></path>
                            <g id="Group-12" transform="translate(16.357143, 10.500000)">
                                <g id="Group-8" transform="translate(0.000000, 0.337247)">
                                    <path d="M35.7309798,31.3891603 C25.98843,31.3891603 22.0862244,29.4406503 20.5266386,27.8045761 C19.4908039,26.7168849 19.4713577,25.7549459 19.4726541,25.6499363 L19.4726541,5.73572366 C18.3642203,5.41421303 17.548776,4.35893218 17.548776,3.11048568 C17.548776,1.60664565 18.729809,0.384127415 20.1817925,0.384127415 C21.6324796,0.384127415 22.8135125,1.60664565 22.8135125,3.11048568 C22.8135125,3.93759769 22.4531095,4.70377826 21.8567591,5.21326889 L23.4902406,8.60857668 C23.8052691,9.26585849 24.747762,9.23993021 25.0277873,8.56709144 L26.3890219,5.29235013 C25.7330365,4.78545233 25.3246661,3.97908294 25.3246661,3.11048568 C25.3246661,1.60664565 26.5056991,0.384127415 27.9563862,0.384127415 C29.4070732,0.384127415 30.5881062,1.60664565 30.5881062,3.11048568 C30.5881062,3.95056183 30.2186283,4.72452088 29.6054245,5.23401151 L31.1935315,8.63580137 C31.4994851,9.29308318 32.4367923,9.28271187 32.7297818,8.62024441 L34.1882474,5.30920351 C33.516705,4.80749137 33.0992598,3.9946399 33.0992598,3.11048568 C33.0992598,1.60664565 34.2802928,0.384127415 35.7309798,0.384127415 C37.1816669,0.384127415 38.3626999,1.60664565 38.3626999,3.11048568 C38.3626999,3.92333714 38.0087789,4.68303564 37.4227999,5.19382268 L38.9810893,8.63709779 C39.2792645,9.29697242 40.2165717,9.29826884 40.5160432,8.63969062 L42.0185869,5.35328158 C41.3120413,4.85675509 40.8738535,4.02964307 40.8738535,3.11048568 C40.8738535,1.60664565 42.0548864,0.384127415 43.5055735,0.384127415 C44.9562606,0.384127415 46.1372936,1.60664565 46.1372936,3.11048568 C46.1372936,3.92204073 45.7976331,4.66618226 45.2181362,5.17437648 L46.605299,8.51264206 C46.8853243,9.18937007 47.8381885,9.21140911 48.146735,8.54634882 L49.6777997,5.26512544 C49.0425569,4.75693123 48.6484471,3.96222956 48.6484471,3.11048568 C48.6484471,1.60664565 49.8294801,0.384127415 51.2801672,0.384127415 C52.7308542,0.384127415 53.9118872,1.60664565 53.9118872,3.11048568 C53.9118872,4.33948598 53.1366318,5.3740242 52.0515334,5.71238821 L52.0515334,25.6590112 C52.0515334,26.2449903 51.5926029,31.3891603 35.7309798,31.3891603" id="Fill-1" fill="url(#linearGradient-1)"></path>
                                    <path d="M61.4275871,47.344903 C65.5981503,46.9806108 68.9895689,50.8205885 67.9641055,54.8783637 C64.2615477,69.5330256 50.988863,80.3775271 35.1829857,80.3775271 C18.984295,80.3775271 5.44454912,68.9846425 2.14387953,53.7738192 C1.37251331,50.2216453 4.21036316,46.9183829 7.82995054,47.2502648 C13.9568023,47.8129084 23.8795536,48.5181575 35.1077937,48.5181575 C45.716348,48.5181575 55.2073936,47.8881004 61.4275871,47.344903" id="Fill-3" fill="#EFDFBF"></path>
                                    <g id="Group-7" transform="translate(0.000000, 15.410891)">
                                        <mask id="mask-3" fill="white">
                                            <use xlink:href="#path-2"></use>
                                        </mask>
                                        <g id="Clip-6"></g>
                                        <path d="M58.9550666,14.8249795 C47.0682483,-5.77762887 35.2449543,1.25282327 35.2449543,1.25282327 C35.2449543,1.25282327 35.1866157,1.26319458 35.0829026,1.28653003 C34.977893,1.26319458 34.9195544,1.25282327 34.9195544,1.25282327 C34.9195544,1.25282327 23.0962604,-5.77762887 11.2094421,14.8249795 C4.96850596,25.64096 -0.00064820691,32.1554395 -0.00064820691,39.9300332 C-0.00064820691,46.6584209 5.53633521,50.7667563 7.50429139,51.7922196 C6.82626697,51.1647553 5.4883679,48.9569626 3.7900658,41.2666358 C1.30484051,30.0059854 17.3051799,39.2909011 24.7206669,40.7610344 C32.136154,42.2324641 35.0829026,40.7610344 35.0829026,32.674005 C35.0829026,40.7610344 38.0283548,42.2324641 45.4438418,40.7610344 C52.8606253,39.2909011 68.8609646,30.0059854 66.3744429,41.2666358 C64.6761408,48.9569626 63.3382418,51.1647553 62.6602173,51.7922196 C64.6294699,50.7667563 70.1638605,46.6584209 70.1638605,39.9300332 C70.1638605,32.1554395 65.1960028,25.64096 58.9550666,14.8249795" id="Fill-5" fill="#212020" mask="url(#mask-3)"></path>
                                    </g>
                                </g>
                            </g>
                        </g>
                    </g>
                </g>
            </g>
        </g>
    </g>
</svg>